<?xml version="1.0" standalone="no"?>
<!DOCTYPE svg PUBLIC "-//W3C//DTD SVG 1.1//EN" "http://www.w3.org/Graphics/SVG/1.1/DTD/svg11.dtd" >
<!--
2013-9-30: Created.
-->
<svg>
<metadata>
Created by iconfont
</metadata>
<defs>

<font id="iconfont" horiz-adv-x="1024" >
  <font-face
    font-family="iconfont"
    font-weight="500"
    font-stretch="normal"
    units-per-em="1024"
    ascent="896"
    descent="-128"
  />
    <missing-glyph />
    
    <glyph glyph-name="x" unicode="x" horiz-adv-x="1001"
d="M281 543q-27 -1 -53 -1h-83q-18 0 -36.5 -6t-32.5 -18.5t-23 -32t-9 -45.5v-76h912v41q0 16 -0.5 30t-0.5 18q0 13 -5 29t-17 29.5t-31.5 22.5t-49.5 9h-133v-97h-438v97zM955 310v-52q0 -23 0.5 -52t0.5 -58t-10.5 -47.5t-26 -30t-33 -16t-31.5 -4.5q-14 -1 -29.5 -0.5
t-29.5 0.5h-32l-45 128h-439l-44 -128h-29h-34q-20 0 -45 1q-25 0 -41 9.5t-25.5 23t-13.5 29.5t-4 30v167h911zM163 247q-12 0 -21 -8.5t-9 -21.5t9 -21.5t21 -8.5q13 0 22 8.5t9 21.5t-9 21.5t-22 8.5zM316 123q-8 -26 -14 -48q-5 -19 -10.5 -37t-7.5 -25t-3 -15t1 -14.5
t9.5 -10.5t21.5 -4h37h67h81h80h64h36q23 0 34 12t2 38q-5 13 -9.5 30.5t-9.5 34.5q-5 19 -11 39h-368zM336 498v228q0 11 2.5 23t10 21.5t20.5 15.5t34 6h188q31 0 51.5 -14.5t20.5 -52.5v-227h-327z" />
    

    
    <glyph glyph-name="tiwen" unicode="&#58880;" d="M512 896c281.6 0 512-214.528 512-480.256s-230.4-480.256-512-480.256a565.76 565.76 0 0 0-166.4 25.6L128-128v227.328A456.192 456.192 0 0 0 0 415.744C0 681.472 230.4 896 512 896zM460.8 230.4a51.2 51.2 0 1 1 51.2 51.2 51.2 51.2 0 0 1-51.2-51.2z m51.2 460.8a145.408 145.408 0 0 1-153.6-149.504 30.208 30.208 0 0 1 30.72-29.696 28.672 28.672 0 0 1 30.72 29.696A86.528 86.528 0 0 0 512 631.296a86.528 86.528 0 0 0 92.16-89.6 72.192 72.192 0 0 0-40.96-62.464 116.736 116.736 0 0 1-81.92-116.736 30.72 30.72 0 0 1 61.44 0 58.88 58.88 0 0 0 43.008 62.976A132.608 132.608 0 0 1 665.6 541.696 145.408 145.408 0 0 1 512 691.2z"  horiz-adv-x="1024" />

    
    <glyph glyph-name="search" unicode="&#58902;" d="M409.719 159.533c180.365 0 326.591 146.33 326.591 326.823 0 180.491-146.227 326.799-326.591 326.799-180.369 0-326.593-146.309-326.593-326.799 0-180.493 146.225-326.823 326.593-326.823z m258.388 10.488c-70.406-57.592-160.353-92.191-258.388-92.191-225.475 0-408.236 182.904-408.236 408.526 0 225.6 182.761 408.504 408.236 408.504 225.453 0 408.255-182.904 408.255-408.503 0-98.103-34.582-188.106-92.131-258.558l296.674-296.879-57.756-57.779-296.654 296.88z"  horiz-adv-x="1024" />

    
    <glyph glyph-name="course" unicode="&#58903;" d="M1010.143 71.95100000000002a46.394 46.394 0 0 0-32.875-13.634H806.722l30.958-186.123H721.363l-30.931 186.123H333.567l-30.933-186.123H186.289l30.933 186.123H46.705c-12.358 0-24.186 4.887-32.904 13.634A46.5 46.5 0 0 0 0.195 104.84299999999996V849.281a46.551 46.551 0 0 0 13.606 32.904C22.52 890.918 34.347 895.805 46.705 895.805h930.563a46.439 46.439 0 0 0 32.875-13.62 46.49 46.49 0 0 0 13.663-32.904v-744.438a46.438 46.438 0 0 0-13.663-32.892z m-71.638 699.096a39.884 39.884 0 0 1-11.385 27.906c-7.275 7.4-17.132 11.551-27.407 11.551H124.258c-10.274 0-20.159-4.151-27.435-11.551-7.273-7.414-11.328-17.452-11.328-27.906v-574.699c0-10.467 4.054-20.492 11.328-27.906 7.276-7.399 17.161-11.564 27.435-11.564h775.455c10.275 0 20.132 4.165 27.407 11.564a39.868 39.868 0 0 1 11.385 27.906V771.047zM497.034 624.797l113.152-90.827c19.489-20.046 19.489-52.591 0-72.638l-113.152-90.827c-19.467-20.048-51.064-20.048-70.557 0V624.797c19.493 20.049 51.09 20.049 70.557 0z"  horiz-adv-x="1024" />

    
    <glyph glyph-name="home" unicode="&#58904;" d="M986.056-127.99300000000005H568.881V128.00400000000002H455.105v-255.997H37.93c-10.431 0-19.917 3.75-26.555 11.194C3.792-109.35400000000004 0-100.03499999999997 0-90.71600000000001V432.027c0 10.236 3.792 19.555 11.375 26.083L418.119 857.799C442.772 882.021 476.91 895.993 511.993 895.993c35.069 0 69.207-13.972 93.846-38.194l406.772-399.689c7.583-7.458 11.389-16.778 11.389-26.083v-522.743c0-20.5-17.083-37.277-37.944-37.277z m-47.388 540.451L551.812 777.189c-10.43 10.25-24.638 16.778-39.818 16.778-15.167 0-29.389-5.611-39.819-16.778L85.332 412.458v-455.119h284.441V184.89200000000005c0 18.666 9.611 28.444 28.444 28.444h227.566c18.833 0 28.444-9.778 28.444-28.444v-227.553h284.44V412.458z"  horiz-adv-x="1024" />

    
    <glyph glyph-name="home-fill" unicode="&#58905;" d="M986.056-127.99300000000005H654.228v284.44c0 31.431-25.5 56.889-56.902 56.889H426.647c-31.402 0-56.874-25.458-56.874-56.889v-284.44H37.93c-10.431 0-19.917 3.75-26.555 11.194C3.792-109.35400000000004 0-100.03499999999997 0-90.71600000000001V432.027c0 10.236 3.792 19.555 11.375 26.083L418.119 857.799C442.772 882.021 476.91 895.993 511.993 895.993c35.069 0 69.207-13.972 93.846-38.194l406.772-399.689c7.583-7.458 11.389-16.778 11.389-26.083v-522.743c0-20.5-17.083-37.277-37.944-37.277z"  horiz-adv-x="1024" />

    
    <glyph glyph-name="course-fill" unicode="&#58906;" d="M1010.143 71.95100000000002a46.394 46.394 0 0 0-32.875-13.634H806.722l30.958-186.123H721.363l-30.931 186.123H333.567l-30.933-186.123H186.289l30.933 186.123H46.705c-12.358 0-24.186 4.887-32.904 13.634A46.5 46.5 0 0 0 0.195 104.84299999999996V849.281a46.551 46.551 0 0 0 13.606 32.904C22.52 890.918 34.347 895.805 46.705 895.805h930.563a46.439 46.439 0 0 0 32.875-13.62 46.49 46.49 0 0 0 13.663-32.904v-744.438a46.438 46.438 0 0 0-13.663-32.892zM497.034 624.797l113.152-90.827c19.489-20.046 19.489-52.591 0-72.638l-113.152-90.827c-19.467-20.048-51.064-20.048-70.557 0V624.797c19.493 20.049 51.09 20.049 70.557 0z"  horiz-adv-x="1024" />

    
    <glyph glyph-name="user" unicode="&#58907;" d="M438.30121125 899.40243429a400.82381113 400.82381113 0 1 1 0-801.74830755A400.82381113 400.82381113 0 0 1 438.30121125 899.5031183z m0-716.16673454c-189.78972259 0-314.94018608 125.25114879-314.94018608 315.14155411 0 189.78972259 125.15046349 315.14155539 314.94018608 315.14155539s314.94018608-125.3518328 314.94018737-315.14155539c0-189.89040659-125.15046349-315.14155539-314.94018737-315.14155411z m262.48371662-314.63813404c0 30.00389283 6.04105217 86.89046643-55.37631089 81.3528356H231.19380683c-60.10846964 5.53763084-55.37631218-51.34894406-55.37631218-81.3528356h-83.06446634v81.3528356c0 30.00389283 24.86899802 81.45351961 55.37631089 81.4535209h580.34374541c30.50731286 0 55.37631218-51.44962809 55.3763109-81.4535209v-81.3528356h-83.06446764z"  horiz-adv-x="1024" />

    
    <glyph glyph-name="play" unicode="&#58908;" d="M809.568 720.142c0-13.091 7.003-25.185 18.381-31.737a36.874 36.874 0 0 1 36.744 0c11.377 6.553 18.382 18.646 18.382 31.737 0 13.091-7.005 25.184-18.382 31.722a36.796 36.796 0 0 1-36.744 0 36.586 36.586 0 0 1-18.381-31.722z m0 0M402.199 192.59199999999998c6.737 0 13.124 1.813 18.497 5.139L684.48 351.34799999999996c12.439 5.938 21.107 18.613 21.107 33.333 0 13.574-7.318 25.451-18.265 31.739L429.478 566.626a36.038 36.038 0 0 1-27.279 12.442c-20.078 0-36.279-16.451-36.279-36.645 0-0.699 0-1.381 0.117-2.047l-0.466-0.232 0.566-307.034c-0.1-1.264-0.217-2.512-0.217-3.893-0.001-20.19 16.318-36.625 36.279-36.625z m0 0M966.045 618.658c-6.155 11.993-18.596 20.327-32.969 20.327-20.325 0-36.76-16.435-36.76-36.646a36.464 36.464 0 0 1 5.256-18.83l-0.118-0.116c30.69-59.799 48.041-127.601 48.041-199.393 0-241.512-195.851-437.377-437.378-437.377-241.511 0-437.494 195.865-437.494 437.377C74.623 625.511 270.489 821.261 512 821.261c71.343 0 138.679-17.116 198.147-47.357l0.246 0.449c5.224-2.961 11.396-4.675 17.916-4.675 20.312 0 36.747 16.435 36.747 36.629 0 14.954-9.019 27.845-22.042 33.551C673.634 875.14 595.221 895 512 895 229.735 895 1 666.165 1 384c0-282.164 228.735-511 511-511 282.266 0 511 228.736 511 511 0 84.584-20.526 164.361-56.955 234.658z m0 0"  horiz-adv-x="1024" />

    
    <glyph glyph-name="edit" unicode="&#58909;" d="M916.198807 623.982442L751.284261 789.19564l85.30445 85.454275c28.417837 28.467778 73.915741 28.467778 96.664194 0l68.225381-68.373209c28.442807-28.466779 28.442807-74.066565 0-96.840987l-85.279479-85.453277zM438.560207 145.443893L273.644662 310.65609199999994l449.221762 444.352444 164.889575-165.189226-449.195792-444.375417zM142.891251 8.72244599999999l102.336574 267.747541 164.913547-165.188227-267.250121-102.559314z m840.081631-56.962525c22.775421 0 39.831517-17.080068 39.831517-39.88046 0-22.799393-17.056096-39.879461-39.831517-39.879461H39.83152c-24.922915 0-39.829519 17.080068-39.829519 39.879461 0 22.800392 17.056096 39.88046 39.829519 39.88046h943.141362z m0 0"  horiz-adv-x="1024" />

    
    <glyph glyph-name="user-fill" unicode="&#58910;" d="M511.998 99.58000000000004c-219.936 0-398.207 178.287-398.207 398.21C113.791 717.7139999999999 292.063 896 511.998 896 731.91 896 910.209 717.7139999999999 910.209 497.79c0-219.923-178.299-398.21-398.211-398.21zM369.782 355.571c0-78.539 63.663-142.215 142.216-142.215s142.219 63.676 142.219 142.215H369.782zM223.757 33.724000000000046h576.455c30.389 0 54.998-51.082 54.998-80.847v-80.846h-82.498c0 29.777 6.113 86.331-54.998 80.846H306.229c-59.693 5.485-54.971-51.068-54.971-80.846h-82.469v80.846c0 29.765 24.609 80.847 54.968 80.847z"  horiz-adv-x="1024" />

    
    <glyph glyph-name="back" unicode="&#58911;" d="M725.439-125.745L207.057 369.40999999999997c-1.744 9.071-1.794 20.015 0 29.136L725.439 893.724c4.013 1.67 15.277 1.77 30.505 0l60.988-58.271c1.744-15.203 1.82-26.169 0-29.11L390.02 398.546c-6.132-9.023-6.257-20.039 0-29.136l426.913-407.771c1.694-2.868 1.871-13.807 0-29.112l-60.988-58.271c-15.079-1.669-26.443-1.718-30.506-0.001z"  horiz-adv-x="1024" />

    
    <glyph glyph-name="refresh" unicode="&#58912;" d="M995.671 351.92100000000005c-17.551 2.395-33.724-9.93-36.118-27.394-33.033-244.94-259.155-417.001-505.237-384.113C208.252-26.69399999999996 35.564 198.46799999999996 68.58 443.488 101.614 688.531 327.735 860.489 573.796 827.601c129.808-17.36 238.506-88.736 307.885-187.82H706.706c-17.778 0-32.118-14.278-32.118-31.973 0-17.691 14.34-31.973 32.118-31.973h224.518c35.429 0 64.447 28.767 64.447 64.173V863.571c0 17.695-14.344 31.973-32.121 31.973-17.754 0-32.098-14.278-32.098-31.973l-0.104-183.261C851.876 791.528 729.061 871.336 582.394 890.963 301.235 928.538 42.768 731.91 5.05 451.939c-37.718-279.97 159.635-537.338 440.792-574.908C727-160.51999999999998 985.572 36.085000000000036 1023.291 316.054c2.313 17.485-9.971 33.574-27.62 35.867z m0 0"  horiz-adv-x="1024" />

    
    <glyph glyph-name="packet" unicode="&#58913;" d="M742.400874 896h-460.803747c-114.92863 0-208.464406-87.304188-208.464406-194.590229V226.25118699999996c0-17.663494 14.749557-32.002342 32.928687-32.002342 18.161142 0 32.910699 14.339847 32.910699 32.002342V701.409771c0 72.000023 63.9827 130.589542 142.62502 130.589542h460.803747c78.64332 0 142.62602-58.588519 142.62602-130.589542v-625.534117c0-99.376641-39.981693-139.894953-138.002293-139.894953H276.990389c-99.32068 0-138.017283 39.214236-138.017283 139.894953 0 17.659497-14.749557 31.998345-32.910699 31.998345-18.17813 0-32.928686-14.339847-32.928686-31.998345 0-135.304204 68.606426-203.876654 203.856668-203.876653h470.035211c135.25224 0 203.841678 68.57245 203.841679 203.876653V701.409771c0 107.286041-93.537775 194.590229-208.466405 194.590229z m49.66084-176.643935c-8.696843 15.536-28.749645 21.143031-44.659381 12.697011-221.501175-117.963481-462.285698-0.803431-464.679003 0.392722-16.089608 8.071285-35.94655 1.910647-44.285646-13.78624-8.339096-15.713874-1.999584-34.998221 14.142987-43.124467 7.285842-3.660408 123.892283-60.784964 274.874387-60.784964 78.125686 0 165.445863 15.286177 251.552898 61.178685 15.965696 8.499982 21.805561 27.927227 13.053758 43.427253zM662.7043 258.303494c18.180128 0 32.929686 14.337849 32.929686 31.998345s-14.749557 32.000344-32.929686 32.000344h-89.39171l90.80471 132.767999c10.051883 14.713583 5.964777 34.571523-9.179501 44.356595-15.143278 9.804059-35.554827 5.786903-45.643684-8.910691l-95.624297-139.838993-95.661271 139.838993c-10.052882 14.678607-30.499406 18.677776-45.624698 8.910691-15.143278-9.785072-19.250371-29.643013-9.160514-44.356595l90.785723-132.767999h-85.838226c-18.161142 0-32.910699-14.339847-32.910699-32.000344s14.749557-31.998345 32.910699-31.998345H482.510879v-53.910831H368.168834c-18.161142 0-32.910699-14.339847-32.910699-32.000343s14.749557-31.998345 32.910699-31.998345h114.340046v-82.339703c0-17.661496 14.749557-32.000344 32.910699-32.000343 18.17813 0 32.910699 14.339847 32.910699 32.000343v82.339703h114.374022c18.180128 0 32.929686 14.337849 32.929686 31.998345s-14.749557 32.000344-32.929686 32.000343H548.329279v53.910831h114.375021z m0 0"  horiz-adv-x="1024" />

    
    <glyph glyph-name="title" unicode="&#58914;" d="M235.036 875.439c129.808 0 235.036-105.229 235.036-235.037S364.844 405.367 235.036 405.367 0 510.595 0 640.402c0 129.809 105.228 235.037 235.036 235.037zM833.29 277.16600000000005c106.207 0 192.322-86.095 192.322-192.303 0-106.209-86.115-192.303-192.322-192.303-106.189 0-192.283 86.094-192.283 192.303 0 106.208 86.094 192.303 192.283 192.303zM213.669 277.16600000000005c70.798 0 128.201-57.383 128.201-128.203 0-70.798-57.403-128.2-128.201-128.2-70.82 0-128.202 57.402-128.202 128.2 0.001 70.82 57.382 128.203 128.202 128.203z"  horiz-adv-x="1025" />

    
    <glyph glyph-name="more" unicode="&#58915;" d="M0.00001 384.015c-0.016-36.645 20.358-70.469 53.398-88.791 33.041-18.322 73.74-18.322 106.796 0 33.041 18.322 53.398 52.146 53.398 88.791 0 36.612-20.358 70.452-53.398 88.774-33.057 18.306-73.756 18.306-106.796 0-33.04-18.323-53.414-52.163-53.398-88.774z m0 0M405.80901 384.015c0-36.628 20.359-70.469 53.398-88.775 33.041-18.321 73.758-18.321 106.797 0 33.039 18.307 53.396 52.147 53.396 88.775 0 56.602-47.822 102.491-106.795 102.491-58.971-0.001-106.796-45.889-106.796-102.491z m0 0M811.62001 384.015c0-36.645 20.355-70.469 53.398-88.791 33.039-18.322 73.754-18.322 106.797 0 33.039 18.322 53.396 52.146 53.396 88.791 0 36.612-20.357 70.452-53.396 88.774-33.043 18.306-73.758 18.306-106.797 0-33.043-18.323-53.398-52.163-53.398-88.774z m0 0"  horiz-adv-x="1025" />

    
    <glyph glyph-name="progress" unicode="&#58916;" d="M205.25-19.741999999999962c-19.385 0-34.214 15.273-34.214 35.27 0 189.236 149.383 407.853 340.949 407.853 161.937 0 280.548-149.243 322.734-287.989 5.248-18.662-4.971-38.213-22.994-43.99-18.025-5.775-37.213 4.443-43.158 22.885-35.327 119.859-134.553 239.721-256.582 239.721-151.632 0-272.549-184.514-272.549-337.313 0-19.941-15.968-36.437-34.186-36.437z m0 0M511.985 355.23c-180.154 0-320.427 186.846-338.672 366.694h-35.354c-44.461 0-80.955 37.658-80.955 83.425v7.11C57.004 858.28 93.497 895.884 137.959 895.884h748.082c44.461 0 80.955-37.604 80.955-83.425v-7.11c0-45.767-36.494-83.425-80.955-83.425h-35.355C832.441 542.077 692.195 355.23 511.985 355.23zM137.959 824.178c-6.832 0-12.524-5.831-12.524-12.94v-6.999c0-7.109 5.692-12.943 12.524-12.943h67.291c18.218 0 34.186-15.273 34.186-34.103C241.742 607.95 363.742 425.77 511.985 425.77c148.273 0 270.273 182.181 272.55 332.591 0 18.828 15.971 34.104 34.215 34.104h67.291c6.83 0 12.553 5.888 12.553 12.886v7.11c0 7.052-5.723 12.886-12.553 12.886H137.959v-1.169z m748.082-952.063H137.959c-44.461 0-80.955 37.658-80.955 83.482v7.053c0 45.824 36.493 83.428 80.955 83.428h67.291c19.384 0 34.186-15.275 34.186-35.217 0-19.996-14.802-35.326-34.186-35.326h-67.291c-6.832 0-12.524-5.83-12.524-12.885v-7.053c0-7.055 5.692-12.943 12.524-12.943h748.082c6.83 0 12.553 5.889 12.553 12.943v7.053c0 7.055-5.723 12.885-12.553 12.885H818.75c-19.385 0-34.215 15.33-34.215 35.326 0 19.941 14.83 35.217 34.215 35.217h67.291c44.461 0 80.955-37.604 80.955-83.428v-7.053c0-45.824-36.494-83.482-80.955-83.482z m0 0"  horiz-adv-x="1024" />

    
    <glyph glyph-name="sort" unicode="&#58917;" d="M145.237 225.13599999999997c19.53 16.433 47.901 12.812 63.244-8.064l116.896-158.358V847.95c0 26.497 20.186 47.995 45.057 47.995 24.839 0 45.028-21.498 45.028-47.995v-927.912c0-20.497-12.157-38.622-30.31-45.369a42.327 42.327 0 0 0-14.718-2.625c-13.56 0-26.717 6.56-35.403 18.372L137.676 157.764c-15.405 20.811-11.998 50.995 7.561 67.372zM638.877 893.319c18.063 6.687 38.276 0.374 50.088-15.747l197.358-267.348c15.405-20.875 11.999-50.995-7.563-67.371-19.531-16.499-47.87-12.873-63.242 8L698.621 709.215v-789.177c0-26.497-20.155-47.994-45.06-47.994-24.839 0-45.024 21.497-45.024 47.994V847.95c0 20.436 12.187 38.622 30.34 45.369z m0 0"  horiz-adv-x="1024" />

    
    <glyph glyph-name="comment" unicode="&#58918;" d="M256.081 524.749c-35.347 0-64.041-29.961-64.041-66.942 0-36.963 28.694-66.925 64.041-66.925 35.38 0 64.024 29.962 64.024 66.925 0 36.98-28.644 66.942-64.024 66.942z m256.13 0c-35.38 0-64.024-29.961-64.024-66.942 0-36.963 28.644-66.925 64.024-66.925 35.33 0 63.991 29.962 63.991 66.925 0 36.98-28.661 66.942-63.991 66.942z m256.096 0c-35.348 0-64.041-29.961-64.041-66.942 0-36.963 28.693-66.925 64.041-66.925 35.313 0 64.023 29.962 64.023 66.925 0.001 36.98-28.709 66.942-64.023 66.942z m128.048 302.68H128.049c-70.727 0-128.048-59.972-128.048-133.9V255.52999999999997c0-73.91 58.588-142.053 130.933-142.053h195.173c33.979-36.53 174.766-167.979 174.766-167.979 6.252-6.569 16.373-6.569 22.607 0 0 0 103.106 102.338 170.248 167.979H893.454c72.327 0 130.933 68.143 130.933 142.053V693.529c-0.001 73.928-57.339 133.9-128.032 133.9z m63.99-571.899c0-36.946-30.762-75.744-66.892-75.744H697.047c-23.792 0-45.185-24.626-45.185-24.626l-137.9-128.749-137.87 128.749s-26.226 24.626-48.735 24.626H130.934c-36.147 0-66.909 38.798-66.909 75.744V693.529c0 36.98 28.644 66.941 64.024 66.941h768.306c35.347 0 63.99-29.961 63.99-66.941V255.52999999999997z m0 0"  horiz-adv-x="1024" />

    
    <glyph glyph-name="date" unicode="&#58919;" d="M144.084-126.96400000000006c243.871-1.198 487.815-0.35 731.61-0.398 76.371-0.077 125.234 35.974 140.122 117.163 9.394 227.433 11.892 454.815-1.423 682.149-15.163 56.783-48.365 92.756-105.146 101.949-0.327-20.81-0.626-41.544-0.876-62.329 36.673-25.433 48.841-60.63 48.314-107.021a28049.438 28049.438 0 0 1-0.273-561.512c0.8-75.096-30.503-105.374-100.802-104.947a46346.866 46346.866 0 0 1-692.391 0c-70.547-0.575-101.275 30.002-100.525 104.947 1.824 187.137 1.674 374.375-0.2 561.512-0.549 46.391 11.567 81.64 48.24 107.021 0.199 20.785 0.474 41.519 0.749 62.253C35.214 757.012 0.314 706.649 0.465 625.7090000000001c0.4-200.954-0.75-402.082 0.549-602.982 0.6-95.955 51.387-149.265 143.07-149.691z m294.334 838.259c23.807-1.149 48.714-4.946 71.322 0.7 41.644 10.317 117.764-32.551 118.162 34.699 0.475 59.257-75.494 15.664-108.294 30.628-30.303 0-54.135 0.7-77.943-0.149-23.133-1-53.71 3.771-55.41-31.353-1.748-36.124 28.705-33.55 52.163-34.525zM733.3 105.01700000000005c46.542 1.698 65.202 12.466 64.402 65.478-0.799 51.711-9.317 82.487-64.951 69.173-49.438 10.393-65.327-10.192-65.327-62.279-0.152-52.562 11.017-74.447 65.876-72.372z m-226.558 3.123c51.961-11.618 68.999 10.691 68 66.551-0.898 49.14-11.516 68.399-61.904 67.95-49.989-0.351-71.047-11.817-68.474-69.575 2.123-47.89 9.617-76.593 62.378-64.926z m-223.909-2.899c48.089 1.274 79.216 8.244 65.126 71.998 14.089 50.536-9.318 64.426-57.482 65.125-49.189 0.851-71.797-9.892-69.149-68.673 2.022-48.089 10.217-69.824 61.505-68.45zM733.3 339.818c46.542 1.725 65.153 12.467 64.402 65.478-0.799 51.661-9.317 82.488-64.951 69.099-49.438 10.416-65.276-10.193-65.327-62.254-0.152-52.511 11.017-74.445 65.876-72.323z m-222.712 137.65c-54.584 2.572-66.075-19.086-66.275-71.973-0.225-52.712 17.263-64.752 64.252-65.526 52.836-0.925 74.544 16.512 63.403 71.446 10.942 55.16-15.487 63.98-61.38 66.053zM286.205 339.89300000000003c44.666 2.648 67.45 9.194 65.501 64.178-1.848 49.165-5.495 84.863-63.453 70.424-47.915 9.442-67.726-7.069-66.727-61.156 1.025-50.087 7.446-76.943 64.679-73.446z m415.169 366.331c1.698-24.433-12.665-60.979 29.627-62.754 42.895-1.849 30.804 34.4 32.952 59.457 1.274 13.615 0.275 27.504 0.275 41.27-0.076 13.665 0.948 27.58-0.275 41.17-2.1 25.207 8.72 111.868-33.825 110.219-36.549-1.424-27.804-84.088-29.029-106.872-1.349-27.505-1.747-55.135 0.275-82.49z m-446.022-0.499c1.699-24.506-12.241-60.98 30.104-62.354 42.843-1.425 30.177 34.998 32.551 60.006 1.349 13.59 0.275 27.43 0.275 41.245 0 13.664 0.875 27.504-0.225 41.169C316.107 811.147 326.325 897.658 283.831 895.51c-36.397-1.849-27.255-84.563-28.529-107.346-1.499-27.379-1.823-55.084 0.05-82.439z m-111.019 7.119c24.233-3.422 48.114-4.572 47.84 31.402-0.199 35.275-22.583 36.349-47.765 30.928-10.942-0.425-21.984-0.924-32.926-1.35-0.274-20.735-0.549-41.469-0.749-62.253l33.6 1.273z m730.289 62.33c-25.231 5.421-47.615 4.272-47.615-31.127-0.076-35.55 22.708-36.198 47.664-31.278 11.316-0.349 22.485-0.849 33.7-1.273 0.25 20.785 0.549 41.52 0.876 62.329-11.542 0.499-23.109 0.924-34.625 1.349z m0 0"  horiz-adv-x="1024" />

    
    <glyph glyph-name="close" unicode="&#58920;" d="M584.312 384.007l424.59 424.689a51.13 51.13 0 0 1 13.221 49.368A51.038 51.038 0 0 1 985.98 894.209a51.1 51.1 0 0 1-49.344-13.222l-424.613-424.69L87.332 880.986A51.14 51.14 0 0 1 37.964 894.208C20.342 889.484 6.543 875.712 1.819 858.064a51.128 51.128 0 0 1 13.224-49.368L439.73 384.007 15.243-40.68299999999999C2.32-53.60699999999997-2.73-72.42600000000004 1.995-90.05200000000002a51.083 51.083 0 0 1 36.144-36.144c17.622-4.749 36.445 0.3 49.369 13.225l424.614 424.688 424.59-424.688c19.972-19.825 52.29-19.825 72.289 0 19.896 19.995 19.896 52.291 0 72.288l-424.689 424.69z m0 0"  horiz-adv-x="1024" />

    
    <glyph glyph-name="time" unicode="&#58921;" d="M875.688 50.37699999999995c0-16.592-13.45-30.04-30.066-30.04-16.594 0-30.067 13.448-30.067 30.04 0 16.618 13.474 30.092 30.067 30.092 16.616 0 30.066-13.474 30.066-30.092M725.631-3.441000000000031c-64.873-35.83-137.83-54.893-213.631-54.893-244.297 0-442.31 198.037-442.31 442.334C69.69 628.296 267.703 826.309 512 826.309S954.334 628.296 954.334 384c0-81.54-22.033-159.713-63.201-227.979-9.781-16.242-4.565-37.353 11.677-47.133 16.269-9.781 37.353-4.565 47.134 11.677C997.499 199.485 1023 289.908 1023 384 1023 666.222 794.223 895 512 895S1 666.222 1 384c0-282.223 228.777-511 511-511 87.503 0 171.889 22.031 246.841 63.476 16.567 9.157 22.606 30.041 13.425 46.633-9.158 16.592-30.042 22.606-46.635 13.45z m0 0M477.692 624.3299999999999v-252.98a34.368 34.368 0 0 1 10.754-24.976l223.736-211.087c13.799-13 35.53-12.376 48.53 1.422 13.024 13.773 12.376 35.506-1.396 48.529L535.578 396.325l10.755-24.976V624.3299999999999c0 18.963-15.37 34.333-34.333 34.333-18.938-0.026-34.308-15.371-34.308-34.333z m0 0"  horiz-adv-x="1024" />

    
    <glyph glyph-name="delete-fill" unicode="&#58922;" d="M512 894.501C230.068 894.501 1.498 665.9490000000001 1.498 384c0-281.932 228.57-510.502 510.501-510.502 281.964 0 510.502 228.57 510.502 510.502C1022.502 665.9490000000001 793.964 894.501 512 894.501z m226.607-685.825c14.475-14.508 14.475-38.055 0-52.58-7.245-7.262-16.75-10.887-26.239-10.887s-18.979 3.625-26.224 10.887L511.334 331.41999999999996 336.526 156.096a36.95 36.95 0 0 0-26.224-10.887c-9.489 0-18.979 3.625-26.224 10.887-14.492 14.525-14.492 38.072 0 52.58l174.809 175.358-174.809 175.341c-14.492 14.507-14.492 38.072 0 52.581 14.475 14.541 37.956 14.541 52.448 0l174.809-175.325 174.81 175.325c14.49 14.541 37.973 14.541 52.463 0 14.475-14.508 14.475-38.073 0-52.581L563.782 384.034l174.825-175.358z"  horiz-adv-x="1024" />

    
    <glyph glyph-name="lock" unicode="&#58923;" d="M511.809 55.458999999999946c-70.89 0-128.368 57.229-128.368 127.52 0 70.289 57.628 127.518 128.368 127.518 70.857 0 128.349-57.229 128.349-127.518 0.135-70.292-57.492-127.52-128.349-127.52z m0 182.881c-30.588 0-55.329-24.824-55.329-55.494 0-30.674 24.89-55.48 55.329-55.48 30.554 0 55.311 24.807 55.311 55.48 0 30.67-24.757 55.494-55.311 55.494z m0 0M881.982 486.044H843.98v71.088c0 89.767-34.221 174.6-96.58 238.625C684.793 860.183 601.607 895.802 513.424 895.802c-88.315 0-171.366-35.503-233.993-100.044-62.209-64.026-96.562-148.859-96.562-238.625v-71.088h-40.984c-40.584 0-73.438-32.421-73.438-72.438v-468.984c0-40.018 32.854-72.424 73.438-72.424h740.23c40.568 0 73.438 32.406 73.438 72.424V413.472c-0.133 40.018-32.987 72.572-73.571 72.572z m-626.224 71.088c0 71.223 27.056 138.197 76.287 188.744C380.743 796.024 445.251 823.63 513.424 823.63c68.158 0 132.551-27.605 181.381-77.753 49.08-50.547 76.27-117.654 76.27-188.744v-71.088H255.758v71.087z m626.625-612.646v-0.133c0-0.133-0.268-0.266-0.268-0.266H141.618c-0.149 0-0.284 0.266-0.284 0.266V413.605c0 0.133 0.284 0.266 0.284 0.266h740.497c0.133 0 0.268-0.266 0.268-0.266v-469.119z m0 0"  horiz-adv-x="1024" />

    
    <glyph glyph-name="delete" unicode="&#58924;" d="M402.314 530.284c-21.953 0-36.589-14.633-36.589-36.586v-365.679c0-21.953 14.636-36.567 36.589-36.567 21.931 0 36.564 14.614 36.564 36.567V493.698c0 21.953-14.634 36.586-36.564 36.586z m0 0M987.452 749.702H731.45v36.565C731.45 848.422 683.907 895.964 621.729 895.964H402.314c-62.177 0-109.721-47.542-109.721-109.697v-36.565H36.566c-21.93 0-36.565-14.635-36.565-36.588 0-21.931 14.635-36.567 36.565-36.567h73.154v-694.791c0-62.177 47.542-109.721 109.72-109.721h585.165c62.176 0 109.717 47.544 109.717 109.721V676.547h73.131c21.955 0 36.568 14.637 36.568 36.567 0 21.953-14.614 36.588-36.569 36.588z m-621.728 36.566c0 21.931 14.636 36.566 36.589 36.566h219.416c21.953 0 36.59-14.635 36.59-36.566v-36.565H365.724v36.565z m475.445-804.512c0-21.953-14.611-36.589-36.564-36.589H219.44c-21.93 0-36.566 14.636-36.566 36.589V676.547h658.295v-694.791z m0 0M621.73 530.284c-21.953 0-36.566-14.633-36.566-36.586v-365.679c0-21.953 14.613-36.567 36.566-36.567s36.59 14.614 36.59 36.567V493.698c0 21.953-14.637 36.586-36.59 36.586z m0 0"  horiz-adv-x="1024" />

    
    <glyph glyph-name="collect" unicode="&#58925;" d="M764.75421-127.99900000000002c-16.680765 0-33.124589 4.275914-47.835854 12.412848L512.408283-2.2069400000000314l-204.430094-113.311229c-33.406518-18.208377-73.837252-15.966946-105.175296 5.793529-31.255064 22.035405-47.349978 60.689591-41.295514 99.171819l40.045832 246.310461-172.806124 177.654892c-26.487275 26.793197-35.609958 66.898014-23.43405 103.002847 12.157913 36.134825 42.913104 62.204206 79.673771 67.585839l235.017327 35.928878L422.11021 838.208674C439.072903 873.585691 474.062019 896 512.408283 896c38.294277 0 73.285392-22.413309 90.22809-57.791326L704.776439 619.930096l235.001332-35.928878c37.058591-5.656564 67.649823-31.518997 79.658774-67.517856 12.107926-36.344772 3.136204-75.860738-23.419054-103.07083L823.128389 235.75764000000004l40.128811-246.378443c6.037467-38.447238-10.040451-77.033441-41.228532-99.103837-16.846723-11.929971-36.828649-18.27436-57.274458-18.27436z m-252.41591 192.137215a30.136348 30.136348 0 0 0 14.312366-3.724055l218.790448-121.244215c13.474579-7.273153 29.685463-6.34239 42.330252 2.347404 11.940968 8.206916 18.145393 22.896187 15.844977 37.519474L760.984168 241.27623800000003c-1.636584 9.931478 1.501619 20.068904 8.437857 27.208092L953.355323 457.518333c9.974467 10.069443 13.475578 25.171609 8.938731 38.79315-4.869764 14.035436-16.977689 24.169863-31.324047 26.205347L680.094706 560.929077c-9.940476 1.485623-18.481307 7.966977-22.816207 17.277613L548.131212 811.24252c-6.738289 13.930463-20.645758 22.68724-35.792912 22.550275-15.143155 0.136965-29.034628-8.620811-35.856895-22.550275L367.486079 578.137707c-4.352895-9.310636-12.892726-15.79199-22.797211-17.276613L93.809567 522.4128559999999c-14.362353-2.137457-26.404296-12.204901-31.357038-26.275328-4.535848-13.585551-1.083725-28.620733 8.906739-38.688177l183.930299-189.102986c6.889251-7.103196 10.023455-17.17364 8.407865-27.069127L221.081252-20.897194000000013c-2.350403-14.68927 3.887013-29.37954 15.928956-37.586457 12.158913-8.622811 29.054623-9.587566 42.396235-2.20444L498.012938 60.48214299999995a29.869416 29.869416 0 0 0 14.325362 3.656072z m0 0"  horiz-adv-x="1024" />

    
    <glyph glyph-name="text" unicode="&#58926;" d="M383.604 788.427c19.865 0 35.979 16.182 35.979 36.146V859.821c0 19.948-16.114 36.129-35.979 36.129s-35.98-16.182-35.98-36.129v-35.247c0-19.965 16.115-36.147 35.98-36.147z m0 0M640.396 788.427c19.881 0 35.996 16.182 35.996 36.146V859.821c0 19.948-16.115 36.129-35.996 36.129-19.863 0-35.963-16.182-35.963-36.129v-35.247c0.001-19.965 16.1-36.147 35.963-36.147z m0 0M415.35 707.335c12.916-20.865 48.346-56.212 99.224-56.212 50.629 0 86.508 35.081 99.725 55.795 10.615 16.648 5.799 38.596-10.648 49.479-16.432 10.865-38.664 6.233-49.713-10.133-0.15-0.233-15.666-22.864-39.363-22.864-23.03 0-37.346 20.948-38.33 22.414-10.548 16.699-32.563 21.748-49.328 11.299-16.865-10.548-22.064-32.812-11.567-49.778z m0 0M496.36-55.64200000000005H224.203c-46.279 0-83.942 37.83-83.942 84.325V727.316c0 46.496 37.663 84.326 83.942 84.326 19.881 0 35.98 16.182 35.98 36.13 0 19.964-16.099 36.146-35.98 36.146-85.958 0-155.885-70.259-155.885-156.602v-698.633c0-86.357 69.927-156.601 155.885-156.601H496.36c19.865 0 35.98 16.181 35.98 36.13 0 19.966-16.115 36.146-35.98 36.146z m0 0M955.682 727.316c0 86.342-69.926 156.602-155.867 156.602-19.883 0-35.996-16.182-35.996-36.146 0-19.948 16.113-36.13 35.996-36.13 46.262 0 83.926-37.83 83.926-84.326v-493.868c0-1.184 0.232-2.317 0.35-3.466-3.6-6.317-12.717-16.715-34.248-16.715h-171.05c-52.828 0-106.824-11.55-106.824-97.158v-153.185c0-44.13 17.166-73.194 51.145-86.441 7.867-3.017 15.35-4.434 22.617-4.434 23.096 0 43.877 14.181 66.508 35.195a34.66 34.66 0 0 1 1.768 1.767c241.676 257.542 241.676 298.823 241.676 312.404 0 2.166-0.184 4.3-0.566 6.382 0.301 1.851 0.566 3.716 0.566 5.65V727.316z m-293.17-767.808c-7.867-7.232-13.115-11.183-16.35-13.299-0.883 2.217-2.25 7.166-2.25 16.731V116.10900000000004c0 16.448 2.4 21.049 2.217 21.049h-0.016c1.031 0.699 7.133 3.833 32.695 3.833h144.236c-43.679-53.179-104.206-121.423-160.532-181.483z m0 0M775.832 371.36800000000005H248.184c-19.865 0-35.98-16.183-35.98-36.131 0-19.964 16.115-36.146 35.98-36.146h527.648c19.865 0 35.965 16.182 35.965 36.146 0 19.949-16.1 36.131-35.965 36.131z m0 0M775.832 552.0509999999999H248.184c-19.865 0-35.98-16.183-35.98-36.13 0-19.966 16.115-36.146 35.98-36.146h527.648c19.865 0 35.965 16.181 35.965 36.146 0 19.947-16.1 36.13-35.965 36.13z m0 0"  horiz-adv-x="1024" />

    
    <glyph glyph-name="appreciate" unicode="&#58928;" d="M120.083-103.93200000000002H47.677c-26.247 0-47.677 21.303-47.677 47.676V442.579c0 26.251 21.43 47.682 47.677 47.682h72.405c17.37 0 31.571-14.075 31.571-31.575a31.496 31.496 0 0 0-31.571-31.576H63.019v-468.145h57.063c17.37 0 31.571-14.076 31.571-31.574-0.127-17.248-14.201-31.323-31.57-31.323z m719.844-9.634c-7.986 0-14.579 0.891-18.641 1.521h-604.71c-17.373 0-31.575 14.076-31.575 31.574V482.906c0 17.24 13.82 31.315 31.067 31.569 73.164 1.02 127.814 22.572 162.561 64.038 62.511 74.559 44.377 191.973 44.124 193.114-0.631 4.184-0.508 8.369 0.509 12.426 21.048 88.004 83.432 97.513 109.301 97.513 22.316 0 39.308-6.216 41.212-6.975 0.886-0.382 1.771-0.758 2.535-1.14C711.353 807.77 666.715 624.159 637.048 538.5699999999999h283.779c80.77-4.185 106.13-74.941 103.977-121.601-0.127-1.649-0.254-3.299-0.636-4.948l-92.31-441.267c-7.609-62.133-52.369-84.32-91.931-84.32z m-8.496 63.781s3.554-0.637 8.496-0.637c18.769 0 27.137 8.371 29.417 29.799 0.128 1.016 0.255 2.033 0.51 2.916l91.927 439.874c0.128 14.33-3.548 51.353-42.602 53.384H590.89c-10.649 0-20.667 5.452-26.501 14.457-5.834 9-6.592 20.285-2.28 30.049 1.14 2.412 103.467 237.12-11.54 295.827-2.408 0.758-9.382 2.536-17.878 2.536-14.838 0-35.506-4.694-46.537-43.62 3.802-30.431 13.063-150.641-58.707-236.485-41.594-49.829-101.824-78.488-179.3-85.335V-48.89999999999998h576.055c2.541-0.127 4.949-0.373 7.229-0.885z m0 0"  horiz-adv-x="1024" />

    
    <glyph glyph-name="like-fill" unicode="&#58929;" d="M738.499 829.2C627.467 829.2 547.938 728.736 513.692 675.594 479.379 728.736 399.884 829.2 288.885 829.2 129.56 829.2 0 685.025 0 507.841c0-82.839 55.95-201.632 123.875-263.785C217.85 122.80600000000004 482.055-61.200000000000045 514.628-61.200000000000045c33.209 0 291.729 179.758 387.41 303.801 69.094 63.258 125.346 182.183 125.346 265.24C1027.383 685.025 897.792 829.2 738.499 829.2"  horiz-adv-x="1027" />

    
    <glyph glyph-name="integral" unicode="&#58930;" d="M48.534 652.94c0-133.923 207.495-242.487 463.466-242.487S975.467 519.017 975.467 652.94C975.467 786.849 767.971 895.411 512 895.411 256.029 895.411 48.534 786.849 48.534 652.94z m0 0M512 337.50699999999995c-189.313 0-352.11 59.385-424.059 144.49-25.33-29.966-39.407-63.115-39.407-97.997 0-133.922 207.495-242.487 463.466-242.487S975.467 250.077 975.467 384c0 34.882-14.078 68.032-39.408 97.997-71.948-85.105-234.746-144.49-424.059-144.49z m0 0M512 61.888000000000034c-191.779 0-356.355 60.944-426.821 147.829-23.598-29.076-36.646-61.069-36.646-94.642 0-133.924 207.495-242.486 463.466-242.486s463.467 108.563 463.467 242.486c0 33.572-13.049 65.565-36.646 94.642C868.355 122.832 703.779 61.888000000000034 512 61.888000000000034z m0 0"  horiz-adv-x="1024" />

    
    <glyph glyph-name="appreciate-fill" unicode="&#58931;" d="M112.86 513.162C50.629 513.162 0.001 464.65 0.001 405.017V-3.8999999999999773c0-59.633 50.628-108.146 112.859-108.146h71.438V513.162h-71.438z m0 0M887.178 536.2049999999999H645.995c13.176 35.221 21.881 73.479 24.975 110.523 4.826 57.586-4.416 108.735-26.691 147.913C616.855 842.84 570.178 872.909 509.27 881.583c-27.603 3.938-51.326-1.162-70.544-15.112-38.848-28.229-45.98-81.912-54.24-144.096-6.596-49.727-14.069-106.046-39.222-146.438-12.549-20.178-34.039-45.337-81.591-56.702v-631.28h529.862c31.001 0 61.427 10.147 85.704 28.594 24.297 18.461 41.529 44.555 48.59 73.479l93.659 383.881c9.638 39.524 0.071 80.418-26.244 112.223-26.316 31.82-65.699 50.073-108.066 50.073z m0 0"  horiz-adv-x="1025" />

    
    <glyph glyph-name="pause" unicode="&#58932;" d="M810.084 720.734a36.677 36.677 0 0 1 18.412-31.793 36.94 36.94 0 0 1 36.811 0 36.677 36.677 0 0 1 18.41 31.793c0 13.114-7.016 25.228-18.41 31.777a36.868 36.868 0 0 1-36.811 0c-11.396-6.549-18.412-18.663-18.412-31.777z m0 0M966.832 619.0740000000001c-6.166 12.014-18.627 20.362-33.043 20.362-20.344 0-36.807-16.463-36.807-36.708a36.55 36.55 0 0 1 5.266-18.863l-0.117-0.117c30.744-59.903 48.139-127.838 48.139-199.739 0-241.931-196.207-438.153-438.152-438.153-241.932 0-438.237 196.223-438.237 438.153s196.19 438.02 438.12 438.02c71.467 0 138.936-17.146 198.489-47.439l0.234 0.45c5.248-2.983 11.432-4.683 17.963-4.683 20.346 0 36.809 16.446 36.809 36.692 0 14.98-9.033 27.894-22.063 33.609C673.912 876 595.363 895.879 512 895.879 229.246 895.879 0.113 666.646 0.113 384.009c0-282.655 229.132-511.888 511.887-511.888s511.887 229.134 511.887 511.888c0 84.731-20.563 164.648-57.055 235.065z m0 0M443.765 588.746c18.846 0 34.126-15.278 34.126-34.125v-341.258c0-18.846-15.28-34.125-34.126-34.125s-34.125 15.279-34.125 34.125V554.621c-0.001 18.847 15.279 34.125 34.125 34.125zM614.395 588.746c18.846 0 34.125-15.278 34.125-34.125v-341.258c0-18.846-15.279-34.125-34.125-34.125s-34.127 15.279-34.127 34.125V554.621c0 18.847 15.281 34.125 34.127 34.125z"  horiz-adv-x="1024" />

    
    <glyph glyph-name="coupon" unicode="&#58933;" d="M988.182 282.418c-58.43 29.439-75.949 52.999-75.949 100.116 0 44.168 17.52 67.726 75.949 100.101 32.139 20.61 35.057 38.287 35.057 67.727V718.19c0 53-43.826 97.168-96.402 97.168H97.165C44.588 815.358 0.762 771.19 0.762 718.19v-167.828c0-26.492 2.918-50.065 35.058-67.727 23.371-11.779 75.949-41.22 75.949-100.101 0-64.778-37.975-85.389-73.032-97.168H35.82C3.68 264.756 0.762 232.36699999999996 0.762 217.63800000000003v-167.827c0-53.001 43.826-97.17 96.403-97.17h829.671c52.576 0 96.402 44.169 96.402 97.17V217.639c0 32.389-11.685 44.168-35.056 64.779z m-321.35 58.896c17.535 0 32.139-14.729 32.139-32.406 0-17.66-14.604-32.372-32.139-32.372H544.125V152.86c0-17.662-14.604-32.39-32.124-32.39-17.537 0-32.125 14.728-32.125 32.39V276.53599999999994H357.169c-17.537 0-32.14 14.712-32.14 32.372 0 17.678 14.604 32.406 32.14 32.406h122.707v76.542H348.4c-17.52 0-32.124 14.728-32.124 32.403 0 17.663 14.604 32.375 32.124 32.375h96.404L342.565 585.7c-11.686 11.779-11.686 32.389 0 44.169 11.686 11.763 32.124 11.763 43.809 0L512 503.244l125.61 126.625c11.686 11.763 32.139 11.763 43.824 0 11.686-11.78 11.686-32.39 0-44.169L579.197 482.635h93.484c17.521 0 32.125-14.712 32.125-32.375 0-17.676-14.604-32.403-32.125-32.403H541.207v-76.542h125.625z m0 0"  horiz-adv-x="1024" />

    
    <glyph glyph-name="collect-fill" unicode="&#58934;" d="M992.095488 395.925577c30.233308 30.266277 39.532483 76.767147 25.565738 116.302628-13.965746 41.865269-46.498872 72.101575-88.367139 79.101931l-186.068418 32.532126c-20.935132 4.66757-37.235663 16.299532-46.53284 34.900879L608.320695 830.865813C592.054133 872.733081 554.820468 896 512.986169 896c-41.898238 0-79.098934-23.266919-100.033067-62.799403l-86.069319-172.10467c-9.299175-18.632318-27.900522-32.566094-46.498872-34.901877L94.312496 593.661923c-41.868266-7.000357-74.401392-37.233665-88.368137-79.101931-13.966745-41.868266-2.332786-86.06832 25.566737-116.302627L161.779469 258.704802c13.933777-13.966745 20.934133-37.234664 18.601347-58.167798l-27.900522-193.036806c-7.000357-41.867267 11.634958-86.067321 44.167085-111.669024 18.602346-13.930779 41.868266-23.266919 65.135186-23.266919 16.266563 0 34.900879 4.66757 48.834655 11.667926l169.801856 86.035352c18.602346 9.300174 39.533482 9.300174 58.134829 0l169.802855-86.035352c37.199697-18.634316 81.401749-16.298532 116.268659 9.265208 32.566094 25.602703 51.167441 67.467972 44.167085 111.668025l-25.564739 193.038804c-2.335783 20.933134 4.664573 41.868266 18.597351 58.168797l130.270372 139.552562z m0 0"  horiz-adv-x="1024" />

    
    <glyph glyph-name="like" unicode="&#58935;" d="M549.631163 8.09857999999997c-21.547398 0-44.209318 9.287672-66.871236 27.491508-0.464384 0.464384-1.486027 0.928767-2.043288 2.043288L150.447031 362.794764A255.875357 255.875357 0 0 0 73.173602 546.8764189999999c0 69.286031 27.398632 134.949871 77.273429 183.524394a264.327138 264.327138 0 0 0 186.682202 75.973155c70.493429 0 137.271789-26.841371 186.682203-75.973155l24.147946-23.77644 24.798084 24.3337a266.556179 266.556179 0 0 0 195.598367 75.415895 29.72055 29.72055 0 0 0 28.884659-30.463564 29.070413 29.070413 0 0 0-31.020823-28.420275 210.087135 210.087135 0 0 1-151.38905-58.512332L570.621301 645.232863a28.698906 28.698906 0 0 0-21.547398-10.402193c-8.358905-0.464384-16.253426 2.600548-22.661919 8.358905L480.809515 687.956153A199.127682 199.127682 0 0 1 337.129233 746.932868a203.771518 203.771518 0 0 1-143.958912-58.419455 199.034806 199.034806 0 0 1-0.55726-284.388509l329.712347-323.582484c20.525755-16.532056 31.020824-18.575344 51.082195-0.557261l330.641114 325.254265a200.520833 200.520833 0 0 1 55.726031 182.967134c-3.064932 16.067672 7.430137 31.578084 23.683563 35.200276a30.742194 30.742194 0 0 0 35.757536-23.219179A256.897001 256.897001 0 0 0 947.143514 363.816408L615.759386 38.19063600000004c-21.547398-20.247124-43.652057-29.99918-66.2211-29.999179z m0 0M304.622382 449.727372a29.72055 29.72055 0 0 0-29.99918 29.44192V578.9188859999999a29.72055 29.72055 0 0 0 29.906304 29.44192 29.72055 29.72055 0 0 0 29.999179-29.44192v-99.749594a29.070413 29.070413 0 0 0-29.999179-29.44192z m487.881398 0a29.72055 29.72055 0 0 0-29.906303 29.44192V578.9188859999999a29.72055 29.72055 0 0 0 29.906303 29.44192 29.72055 29.72055 0 0 0 29.999179-29.44192v-99.749594a29.72055 29.72055 0 0 0-29.999179-29.44192z m198.291792 235.721109H810.428986c-16.903563 0-29.99918 13.467124-29.99918 29.44192s13.652877 29.534796 29.99918 29.534796h180.366586A29.72055 29.72055 0 0 0 1020.701875 714.890401a29.72055 29.72055 0 0 0-29.906303-29.44192z m0 0M900.333649 596.472586a29.72055 29.72055 0 0 0-29.99918 29.534796V803.309036a29.72055 29.72055 0 0 0 29.99918 29.441919 29.72055 29.72055 0 0 0 29.99918-29.441919v-177.394531a29.72055 29.72055 0 0 0-29.99918-29.441919z m0 0"  horiz-adv-x="1181" />

    
    <glyph glyph-name="feedback" unicode="&#58936;" d="M390.94349 852.628294C72.419888 777.857043-23.810808 618.0178579999999 53.173748 321.72354600000006a727.79275 727.79275 0 0 1 88.628471-207.858302c30.793823-38.588509-18.380063-194.097313 22.13306-217.481372 48.596501-27.810671 191.787776 84.298089 261.651261 81.026246a804.488615 804.488615 0 0 1 186.687549 23.672751c318.523602 74.67502 416.48645 228.547902 337.865972 530.712286C871.519583 834.05577 703.115866 925.667392 391.03972 852.628294z m-123.175291-491.546393c-36.856356-0.096231-67.072795 28.099363-67.361486 63.127336 2.213306 34.161897 30.601361 61.491414 66.49541 64.089643 37.048818 0.192461 67.169025-28.099363 67.457718-63.127336 0.288692-35.124204-29.542824-63.800951-66.495411-64.089643z m234.225513 1.154768c-36.952587-0.192461-67.169025 28.003132-67.457717 63.127337 2.213306 34.065666 30.601361 61.395184 66.49541 63.993412 35.99028-2.117075 64.763258-29.06167 67.457718-63.127336-2.213306-34.161897-30.601361-61.491414-66.495411-63.993413z m227.681826 1.539691c-37.048818-0.192461-67.169025 28.003132-67.457718 63.127337 2.213306 34.065666 30.601361 61.395184 66.495411 63.993412 36.952587 0.192461 67.169025-28.003132 67.457718-63.127336 0.288692-35.124204-29.542824-63.800951-66.495411-63.993413z m0 0"  horiz-adv-x="1024" />

    
    <glyph glyph-name="cart-fill" unicode="&#58927;" d="M943.843439 693.853834c18.250593 0 32.424912-2.408708 42.245028-7.318766 4.910058-2.13078 9.264261-4.539488 12.78468-7.226123 3.427776-2.779278 6.299697-5.929127 8.337834-9.356904a34.555692 34.555692 0 0 0 5.558557-21.771012c0-2.779278-0.37057-5.373271-0.648499-7.781979l-1.111711-6.76291a34.277764 34.277764 0 0 0-1.667567-6.207055l-12.599394-34.277764-20.103446-57.067845-22.326868-61.14412c-9.171618-26.403143-14.822817-42.615599-16.860954-48.822654a178.892872 178.892872 0 0 0-14.359604-30.57206 74.206727 74.206727 0 0 0-17.41681-20.381373 74.947868 74.947868 0 0 0-46.691873-14.544889H354.729107l14.822817-82.729847H852.775757c31.035273 0 46.506588-12.692037 46.506588-38.354039 0-12.506752-3.149849-23.160652-9.449546-32.146985-5.651199-8.986333-17.694738-13.52582-36.037973-13.52582H350.652832a71.890662 71.890662 0 0 0-22.790081 3.705704 32.517555 32.517555 0 0 0-9.078975 4.63213 69.759882 69.759882 0 0 0-21.122514 21.67837 137.111057 137.111057 0 0 0-14.822817 29.182421 602.176939 602.176939 0 0 0-7.411409 30.016205l-5.280628 27.144283-10.561257 52.621-13.803749 71.520092-15.934528 79.857927L188.528272 722.850969H116.452324c-9.912759 0-17.694738 2.13078-23.345937 6.299698-6.484982 4.724773-12.043539 10.283329-16.953596 16.583026A83.100418 83.100418 0 0 1 71.335375 757.0360909999999a40.762747 40.762747 0 0 0-3.705704 10.375972 111.912268 111.912268 0 0 0-2.038138 19.732875c0 12.506752 4.168917 22.882724 12.599395 31.220558a73.187659 73.187659 0 0 0 15.934528 8.337835c5.651199 1.945495 12.043539 3.057206 19.084377 3.057206H210.762497c12.692037 0 22.975366-1.76021 30.664703-5.187986a215.857272 215.857272 0 0 0 10.098044-6.299697c3.149849-2.038137 6.207055-4.446845 9.078975-7.226124a57.438416 57.438416 0 0 0 8.430477-17.602095l5.280629-16.675669 3.149848-15.563958v-5.187986l4.26156-26.958998 5.280629-35.296833h656.836077zM782.552662 166.902691a104.315574 104.315574 0 0 0 35.018905-6.299698 72.909731 72.909731 0 0 0 28.719207-18.713806c8.337835-8.337835 15.193387-17.138882 20.103446-26.866356a87.08405 87.08405 0 0 0 0-66.610034A124.141092 124.141092 0 0 0 846.290774 20.52737300000001a80.135854 80.135854 0 0 0-28.719207-17.602095 82.82249 82.82249 0 0 0-34.740978-7.226123 83.007775 83.007775 0 0 0-35.018905 7.13348A89.678043 89.678043 0 0 0 720.29683 20.52737300000001c-8.337835 8.986333-14.822817 18.435879-19.084377 27.978067a76.152222 76.152222 0 0 0-5.836484 49.841722c1.019069 5.558556 2.964563 11.117113 5.836484 16.675669a86.157624 86.157624 0 0 0 19.084377 26.866356c3.613062 4.26156 7.781979 7.781979 12.692037 10.931827a86.620837 86.620837 0 0 0 49.934365 14.081677h-0.185285z m-399.289632 2.038137c12.043539 0 23.716507-2.038137 35.018905-6.207055a84.860627 84.860627 0 0 0 28.626565-18.806449 90.233898 90.233898 0 0 0 18.991734-26.866355c5.002701-11.117113 7.411408-22.234225 7.411409-33.907194 0-11.302398-2.408708-22.234225-7.411409-32.424912a99.127588 99.127588 0 0 0-19.084377-28.163353c-8.337835-7.596694-18.157951-13.618463-29.089778-18.065308a94.773386 94.773386 0 0 0-69.389312-0.463213c-10.561257 4.724773-20.103446 10.931828-28.626565 18.528521-8.430477 8.986333-14.822817 18.343236-19.084377 28.07071a85.231198 85.231198 0 0 0-6.39234 32.70284c0 11.487683 2.13078 22.604796 6.484983 33.721909a78.746215 78.746215 0 0 0 7.874621 13.989033c3.149849 4.446845 6.855553 8.89369 11.117113 12.969965 2.779278 2.779278 5.929127 5.187986 9.449546 7.411408l8.523119 6.207055c3.520419 1.945495 7.040838 3.705704 10.561257 5.095343 2.779278 0.741141 5.743842 1.574924 8.52312 2.593993 2.779278 1.019069 5.651199 1.852852 8.430477 2.038138l8.986333 1.111711c3.242491 0.37057 6.299697 0.463213 9.171618 0.463213z m0 0"  horiz-adv-x="1164" />

    
    <glyph glyph-name="tubiaomoban" unicode="&#58937;" d="M511.598 896C230.226 896 0 681.637 0 416.126 0 150.60000000000002 230.226-63.763000000000034 511.598-63.763000000000034a564.965 564.965 0 0 1 166.276 25.59l217.423-89.023V99.95299999999997c81.936 84.871 127.774 198.203 127.899 316.173C1023.196 681.637 792.97 896 511.598 896z m31.975-607.522H287.774c-17.675 0-31.975 14.316-31.975 31.975s14.3 31.975 31.975 31.975h255.799c17.672 0 31.975-14.316 31.975-31.975s-14.303-31.975-31.975-31.975z m191.849 191.849H287.774c-17.675 0-31.975 14.316-31.975 31.975 0 17.658 14.3 31.975 31.975 31.975h447.648c17.673 0 31.975-14.316 31.975-31.975-0.001-17.659-14.302-31.975-31.975-31.975z"  horiz-adv-x="1024" />

    


  </font>
</defs>
</svg>
